<svg width="43" height="43" viewBox="0 0 43 43" fill="white" xmlns="http://www.w3.org/2000/svg">
<path fill-rule="evenodd" clip-rule="evenodd" d="M23.5456 42.9078C30.1558 42.2821 36.1708 38.5514 39.7501 32.8573C43.8417 26.3483 44.0886 17.9127 40.3845 11.1775C38.7185 8.14791 36.2324 5.44101 33.3759 3.54632C30.6315 1.72606 27.6057 0.599458 24.1342 0.105314C23.1526 -0.0343443 19.8284 -0.0353546 18.8364 0.103799C13.5335 0.847579 9.15059 3.12811 5.57474 7.00415C2.64295 10.182 0.760795 14.255 0.11051 18.8289C-0.0552361 19.9945 -0.0300927 23.0552 0.156087 24.3782C0.33924 25.68 0.833953 27.6816 1.25879 28.84C1.63804 29.8738 2.6675 31.985 3.20368 32.8284C4.85281 35.4223 7.15744 37.7844 9.67036 39.4564C10.7882 40.2001 12.9625 41.2897 14.2081 41.7302C17.2102 42.7921 20.4506 43.2008 23.5456 42.9078ZM19.0753 40.6864C16.1242 40.2996 13.198 39.2232 10.8477 37.6598C6.55012 34.8014 3.51162 30.3276 2.52825 25.4108C2.19583 23.7485 2.11779 22.7824 2.16699 20.9339C2.24729 17.9134 2.80373 15.6385 4.12213 12.9409C6.82637 7.40757 12.0902 3.4646 18.2057 2.39131C19.5303 2.15882 22.2157 2.07028 23.5066 2.21659C27.3478 2.65179 30.9853 4.18753 33.8581 6.58703C37.6585 9.76134 40.0486 14.1232 40.6969 19.0678C40.8597 20.3103 40.8642 22.5699 40.7061 23.8349C39.7797 31.2501 34.6763 37.492 27.6241 39.8352C26.3488 40.2589 25.2083 40.5245 23.966 40.6871C22.7681 40.8439 20.2739 40.8435 19.0753 40.6864ZM25.2864 29.9083C25.761 29.614 25.9249 28.8037 25.5924 28.3953C25.5304 28.3191 23.7579 26.7491 21.6535 24.9063C19.5491 23.0635 17.8273 21.5206 17.8273 21.4774C17.8273 21.4343 19.5491 19.8913 21.6535 18.0485C23.7579 16.2057 25.5327 14.633 25.5974 14.5535C25.6622 14.4741 25.7332 14.2215 25.7552 13.9922C25.7933 13.5958 25.7787 13.5587 25.4582 13.2383C25.1675 12.9476 25.0705 12.9013 24.7538 12.9015C24.5392 12.9017 24.2816 12.9678 24.1342 13.0607C23.7893 13.2779 15.4422 20.5993 15.2257 20.8746C14.99 21.1741 14.99 21.7808 15.2257 22.0803C15.4422 22.3556 23.7893 29.6769 24.1342 29.8942C24.4455 30.0903 24.9825 30.0968 25.2864 29.9083Z" fill="#FBFBFB"/>
</svg>
