<svg width="43" height="43" viewBox="0 0 43 43" fill="none" xmlns="http://www.w3.org/2000/svg">
<path fill-rule="evenodd" clip-rule="evenodd" d="M19.4544 0.0921802C12.8442 0.717911 6.82915 4.44858 3.24985 10.1427C-0.841654 16.6517 -1.08855 25.0873 2.61546 31.8225C4.2815 34.8521 6.7676 37.559 9.62413 39.4537C12.3685 41.2739 15.3943 42.4005 18.8658 42.8947C19.8474 43.0343 23.1716 43.0354 24.1636 42.8962C29.4665 42.1524 33.8494 39.8719 37.4253 35.9958C40.3571 32.818 42.2392 28.745 42.8895 24.1711C43.0552 23.0055 43.0301 19.9448 42.8439 18.6218C42.6608 17.32 42.166 15.3184 41.7412 14.16C41.362 13.1262 40.3325 11.015 39.7963 10.1716C38.1472 7.57766 35.8426 5.21557 33.3296 3.54362C32.2118 2.79992 30.0375 1.71032 28.7919 1.26982C25.7898 0.207876 22.5494 -0.200758 19.4544 0.0921802ZM23.9247 2.3136C26.8758 2.70037 29.802 3.77678 32.1523 5.34018C36.4499 8.19859 39.4884 12.6724 40.4718 17.5892C40.8042 19.2515 40.8822 20.2176 40.833 22.0661C40.7527 25.0866 40.1963 27.3615 38.8779 30.0591C36.1736 35.5924 30.9098 39.5354 24.7943 40.6087C23.4697 40.8412 20.7843 40.9297 19.4934 40.7834C15.6522 40.3482 12.0147 38.8125 9.14194 36.413C5.34148 33.2387 2.95141 28.8768 2.30314 23.9322C2.14026 22.6897 2.1358 20.4301 2.29389 19.1651C3.22025 11.7499 8.32372 5.508 15.3759 3.16475C16.6512 2.74107 17.7917 2.47546 19.034 2.31293C20.2319 2.15612 22.7261 2.15645 23.9247 2.3136ZM17.7136 13.0917C17.239 13.386 17.0751 14.1963 17.4076 14.6047C17.4696 14.6809 19.2421 16.2509 21.3465 18.0937C23.4509 19.9365 25.1727 21.4794 25.1727 21.5226C25.1727 21.5657 23.4509 23.1087 21.3465 24.9515C19.2421 26.7943 17.4673 28.367 17.4026 28.4465C17.3378 28.5259 17.2668 28.7785 17.2448 29.0078C17.2067 29.4042 17.2213 29.4413 17.5418 29.7617C17.8325 30.0524 17.9295 30.0987 18.2462 30.0985C18.4608 30.0983 18.7184 30.0321 18.8658 29.9393C19.2107 29.7221 27.5578 22.4007 27.7743 22.1254C28.01 21.8259 28.01 21.2192 27.7743 20.9197C27.5578 20.6444 19.2107 13.3231 18.8658 13.1058C18.5545 12.9097 18.0175 12.9032 17.7136 13.0917Z" fill="#FBFBFB"/>
</svg>
