<svg aria-hidden="true" style="position: absolute; width: 0; height: 0; overflow: hidden;" version="1.1" xmlns="http://www.w3.org/2000/svg" xmlns:xlink="http://www.w3.org/1999/xlink">
<defs>
<symbol id="icon-g-clef-musical-note-1-Traced" viewBox="0 0 84 32">
<path fill="#fe8202" style="fill: var(--color1, #fe8202)" d="M83.695 19.878c-1.66-1.568-5.627-3.854-8.483-4.889-2.822-1.023-6.944-1.499-9.894-1.143-0.863 0.104-2.787 0.405-4.276 0.669s-2.838 0.48-2.998 0.48c-0.163 0-1.014-0.802-1.936-1.827-6.706-7.448-12.631-11.456-19.064-12.896-0.82-0.184-1.96-0.272-3.525-0.272-4.102-0.001-6.647 0.924-9.307 3.384-2.974 2.751-4.952 6.163-5.978 10.312-0.303 1.228-0.382 2.006-0.386 3.816-0.005 2.353 0.183 3.422 0.879 5.018l0.318 0.73-0.858 0.312c-3.183 1.159-8.020 1.569-10.852 0.92-4.697-1.076-6.885-4.187-6.313-8.978 0.195-1.637 0.729-3.609 1.129-4.17 0.204-0.287 0.228-0.206 0.228 0.765 0 2.098 1.065 3.836 2.915 4.757 0.862 0.429 1.13 0.482 2.454 0.479 1.293-0.003 1.598-0.061 2.344-0.444 1.119-0.576 1.977-1.45 2.512-2.557 0.363-0.752 0.43-1.111 0.422-2.274-0.011-1.764-0.441-2.796-1.588-3.81-1.090-0.964-2.157-1.312-3.937-1.284-1.642 0.025-2.845 0.392-4.215 1.286-1.066 0.695-1.695 1.402-2.364 2.657-0.705 1.322-0.918 2.429-0.922 4.804-0.005 2.461 0.188 3.399 1.068 5.197 1.556 3.178 4.090 4.725 8.046 4.911 2.217 0.105 3.935-0.096 7.628-0.892 1.78-0.383 2.736-0.525 2.775-0.41 0.132 0.391 2.035 3.101 2.685 3.824 1.705 1.898 4.186 3.256 6.483 3.549 1.445 0.184 3.622 0.093 4.893-0.203 0.421-0.098 1.383-0.467 2.137-0.819 3.354-1.565 5.166-4.848 5.223-9.464l0.024-1.94 9.655-2.091 0.686 0.793c0.377 0.436 1.408 1.499 2.291 2.362 3.415 3.339 6.548 5.12 10.87 6.181 1.982 0.486 7.154 0.524 9.271 0.068 3.023-0.652 6.133-1.944 8.664-3.599 2.372-1.552 2.585-2.096 1.295-3.315zM78.93 22.884c-0.384 0.795-1.367 1.599-2.481 2.028-1.293 0.498-4.335 0.543-6.092 0.090-1.444-0.372-3.531-1.315-4.829-2.182-2.021-1.349-6.259-5.289-6.79-6.311l-0.344-0.664 0.454-0.089c1.167-0.229 4.268-0.293 6.223-0.128 4.396 0.372 7.596 1.16 10.473 2.58 3.058 1.508 4.172 3.047 3.386 4.676zM45.136 17.428l-4.242 0.916-0.187-0.741c-0.103-0.407-0.458-1.289-0.79-1.958-0.807-1.628-2.93-3.742-4.524-4.506-3.408-1.634-6.716-1.272-8.946 0.978-0.823 0.831-1.767 2.443-1.553 2.654 0.057 0.056 0.398-0.128 0.758-0.409 1.254-0.976 2.071-1.234 3.911-1.234 1.588 0 1.716 0.027 2.921 0.613 1.412 0.686 2.348 1.599 3.013 2.941 0.374 0.754 0.832 2.507 0.692 2.646-0.059 0.058-15.627 3.462-15.84 3.463-0.233 0.001-0.658-1.032-1.051-2.557-0.65-2.519-0.515-5.788 0.336-8.141 0.746-2.063 2.142-4.070 3.741-5.378 1.295-1.059 2.186-1.558 3.955-2.212 1.262-0.467 1.755-0.558 3.499-0.648 4.949-0.255 8.385 1.193 12.526 5.282 2.117 2.090 6.471 7.214 6.211 7.309-0.103 0.038-2.097 0.48-4.43 0.984zM35.889 23.176c-0.447 1.714-1.548 3.28-2.903 4.129-2.853 1.787-6.808 1.505-9.738-0.695-0.762-0.572-2.363-2.34-2.365-2.612-0.001-0.095 3.293-0.884 7.357-1.763 4.047-0.875 7.512-1.63 7.7-1.679 0.328-0.084 0.337-0.045 0.227 0.951-0.063 0.571-0.189 1.322-0.279 1.668z"></path>
</symbol>
<symbol id="icon-Instagram---Negative" viewBox="0 0 32 32">
<path  d="M15.703 2.828c4.196 0 4.692 0.018 6.343 0.092 1.534 0.067 2.362 0.325 2.914 0.54 0.73 0.282 1.258 0.626 1.803 1.172 0.552 0.552 0.889 1.073 1.172 1.803 0.215 0.552 0.472 1.386 0.54 2.914 0.074 1.656 0.092 2.153 0.092 6.343 0 4.196-0.018 4.693-0.092 6.343-0.068 1.534-0.325 2.362-0.54 2.914-0.282 0.73-0.626 1.258-1.172 1.803-0.552 0.552-1.073 0.889-1.803 1.172-0.552 0.215-1.386 0.472-2.914 0.54-1.656 0.074-2.153 0.092-6.343 0.092-4.196 0-4.693-0.018-6.343-0.092-1.534-0.068-2.362-0.325-2.914-0.54-0.73-0.282-1.257-0.626-1.803-1.172-0.552-0.552-0.889-1.073-1.172-1.803-0.215-0.552-0.472-1.386-0.54-2.914-0.074-1.656-0.092-2.153-0.092-6.343 0-4.196 0.018-4.692 0.092-6.343 0.067-1.534 0.325-2.362 0.54-2.914 0.282-0.73 0.626-1.257 1.172-1.803 0.552-0.552 1.073-0.889 1.803-1.172 0.552-0.215 1.386-0.472 2.914-0.54 1.65-0.074 2.147-0.092 6.343-0.092zM15.703 0c-4.263 0-4.797 0.018-6.471 0.092-1.668 0.074-2.816 0.344-3.809 0.73-1.037 0.405-1.914 0.939-2.785 1.816-0.877 0.871-1.411 1.748-1.816 2.779-0.386 1-0.656 2.141-0.73 3.809-0.074 1.681-0.092 2.214-0.092 6.477s0.018 4.797 0.092 6.471c0.074 1.668 0.344 2.815 0.73 3.809 0.405 1.037 0.939 1.914 1.816 2.785 0.871 0.871 1.748 1.411 2.779 1.81 1 0.386 2.141 0.656 3.809 0.73 1.675 0.074 2.208 0.092 6.471 0.092s4.797-0.018 6.471-0.092c1.668-0.074 2.816-0.343 3.809-0.73 1.030-0.399 1.908-0.939 2.779-1.81s1.411-1.748 1.81-2.779c0.386-1 0.656-2.141 0.73-3.809 0.074-1.675 0.092-2.208 0.092-6.471s-0.018-4.797-0.092-6.471c-0.074-1.668-0.343-2.816-0.73-3.809-0.386-1.043-0.92-1.92-1.797-2.791-0.871-0.871-1.748-1.411-2.779-1.81-1-0.386-2.141-0.656-3.809-0.73-1.681-0.080-2.214-0.098-6.477-0.098z"></path>
<path  d="M15.703 7.637c-4.453 0-8.066 3.613-8.066 8.066s3.613 8.066 8.066 8.066c4.453 0 8.066-3.613 8.066-8.066s-3.613-8.066-8.066-8.066zM15.703 20.936c-2.889 0-5.232-2.343-5.232-5.232s2.343-5.232 5.232-5.232c2.889 0 5.232 2.343 5.232 5.232s-2.343 5.232-5.232 5.232z"></path>
<path  d="M25.972 7.318c0 1.043-0.846 1.883-1.883 1.883-1.043 0-1.883-0.847-1.883-1.883 0-1.043 0.846-1.883 1.883-1.883s1.883 0.846 1.883 1.883z"></path>
</symbol>
<symbol id="icon-right-arrow-10-1-Traced" viewBox="0 0 32 32">
<path d="M17.259 1.758l-0.217 1.457 10.178 2.376-26.942 23.898 1.295 2.446 26.942-23.898-1.962 13.145 2.257 0.522 2.706-18.127-14.038-3.276-0.218 1.457z"></path>
</symbol>
<symbol id="icon-arrow-left-1-1-Traced-1" viewBox="0 0 32 32">
<path d="M17.522 31.931c4.919-0.466 9.396-3.242 12.059-7.479 3.045-4.844 3.229-11.122 0.472-16.134-1.24-2.255-3.090-4.269-5.216-5.679-2.042-1.355-4.294-2.193-6.878-2.561-0.73-0.104-3.204-0.105-3.943-0.001-3.946 0.553-7.208 2.251-9.869 5.135-2.182 2.365-3.582 5.396-4.066 8.8-0.123 0.867-0.105 3.145 0.034 4.13 0.136 0.969 0.504 2.458 0.821 3.32 0.282 0.769 1.048 2.34 1.447 2.968 1.227 1.93 2.942 3.688 4.812 4.932 0.832 0.553 2.45 1.364 3.377 1.692 2.234 0.79 4.646 1.094 6.949 0.876zM14.196 30.278c-2.196-0.288-4.374-1.089-6.123-2.252-3.198-2.127-5.459-5.457-6.191-9.116-0.247-1.237-0.305-1.956-0.269-3.332 0.060-2.248 0.474-3.941 1.455-5.948 2.012-4.118 5.93-7.052 10.481-7.851 0.986-0.173 2.984-0.239 3.945-0.13 2.859 0.324 5.566 1.467 7.703 3.252 2.828 2.362 4.607 5.608 5.089 9.288 0.121 0.925 0.125 2.606 0.007 3.548-0.689 5.518-4.487 10.163-9.735 11.907-0.949 0.315-1.798 0.513-2.722 0.634-0.891 0.117-2.748 0.116-3.64-0.001zM18.818 22.257c0.353-0.219 0.475-0.822 0.228-1.126-0.046-0.057-1.365-1.225-2.931-2.596s-2.847-2.52-2.847-2.552c0-0.032 1.281-1.18 2.847-2.552s2.887-2.542 2.935-2.601c0.048-0.059 0.101-0.247 0.117-0.418 0.028-0.295 0.017-0.323-0.221-0.561-0.216-0.216-0.289-0.251-0.524-0.251-0.16 0-0.351 0.049-0.461 0.118-0.257 0.162-6.468 5.61-6.63 5.815-0.175 0.223-0.175 0.674 0 0.897 0.161 0.205 6.373 5.653 6.63 5.815 0.232 0.146 0.631 0.151 0.857 0.011z"></path>
</symbol>
<symbol id="icon-arrow-right-1-1-Traced" viewBox="0 0 32 32">
<path d="M14.478 0.069c-4.919 0.466-9.396 3.242-12.059 7.479-3.045 4.844-3.229 11.122-0.472 16.134 1.24 2.255 3.090 4.269 5.216 5.679 2.042 1.355 4.294 2.193 6.878 2.561 0.73 0.104 3.204 0.105 3.943 0.001 3.946-0.554 7.208-2.251 9.869-5.135 2.182-2.365 3.582-5.396 4.066-8.8 0.123-0.867 0.105-3.145-0.034-4.13-0.136-0.969-0.504-2.458-0.821-3.32-0.282-0.769-1.048-2.34-1.447-2.968-1.227-1.93-2.942-3.688-4.812-4.932-0.832-0.553-2.45-1.364-3.377-1.692-2.234-0.79-4.646-1.094-6.949-0.876zM17.804 1.722c2.196 0.288 4.374 1.089 6.123 2.252 3.198 2.127 5.459 5.457 6.191 9.116 0.247 1.237 0.305 1.956 0.269 3.332-0.060 2.248-0.474 3.941-1.455 5.948-2.012 4.118-5.93 7.052-10.481 7.851-0.986 0.173-2.984 0.239-3.945 0.13-2.859-0.324-5.566-1.467-7.703-3.252-2.828-2.362-4.607-5.608-5.089-9.288-0.121-0.925-0.125-2.606-0.007-3.548 0.689-5.518 4.487-10.163 9.735-11.907 0.949-0.315 1.798-0.513 2.722-0.634 0.891-0.117 2.748-0.116 3.64 0zM13.182 9.743c-0.353 0.219-0.475 0.822-0.228 1.126 0.046 0.057 1.365 1.225 2.931 2.596s2.847 2.52 2.847 2.552c0 0.032-1.281 1.18-2.847 2.552s-2.887 2.542-2.935 2.601c-0.048 0.059-0.101 0.247-0.117 0.418-0.028 0.295-0.018 0.323 0.221 0.561 0.216 0.216 0.289 0.251 0.524 0.251 0.16-0 0.351-0.049 0.461-0.118 0.257-0.162 6.468-5.61 6.63-5.815 0.175-0.223 0.175-0.674 0-0.897-0.161-0.205-6.373-5.653-6.63-5.815-0.232-0.146-0.631-0.151-0.857-0.011z"></path>
</symbol>
<symbol id="icon-right-arrow-down" viewBox="0 0 36 32">
<path d="M32.891 17.208l-1.474-0.131-1.772 10.352-25.591-25.591-2.376 1.446 25.591 25.591-13.305-1.179-0.388 2.295 18.347 1.626 2.443-14.279-1.474-0.131z"></path>
</symbol>
<symbol id="icon-Group-52" viewBox="0 0 194 32">
<path fill="#fe8202" style="fill: var(--color1, #fe8202)" d="M16 0l3.592 11.056h11.625l-9.404 6.833 3.592 11.056-9.405-6.833-9.405 6.833 3.592-11.056-9.405-6.833h11.625l3.592-11.056z"></path>
<path fill="none" stroke="#fe8202" style="stroke: var(--color1, #fe8202)" stroke-linejoin="miter" stroke-linecap="butt" stroke-miterlimit="4" stroke-width="1.6842" d="M137.263 2.725l2.98 9.173h9.645l-7.803 5.669 0.189 0.582 2.791 8.591-7.803-5.669-7.803 5.669 2.98-9.173-7.803-5.669h9.645l0.189-0.582 2.791-8.591z"></path>
<path fill="#fe8202" style="fill: var(--color1, #fe8202)" d="M56.421 0l3.592 11.056h11.625l-9.404 6.833 3.592 11.056-9.405-6.833-9.405 6.833 3.592-11.056-9.404-6.833h11.625l3.592-11.056z"></path>
<path fill="none" stroke="#fe8202" style="stroke: var(--color1, #fe8202)" stroke-linejoin="miter" stroke-linecap="butt" stroke-miterlimit="4" stroke-width="1.6842" d="M177.684 2.725l2.791 8.591 0.19 0.582h9.644l-7.803 5.669 0.19 0.582 2.791 8.591-7.803-5.669-7.803 5.669 2.791-8.591 0.19-0.582-7.803-5.669h9.644l0.19-0.582 2.791-8.591z"></path>
<path fill="#fe8202" style="fill: var(--color1, #fe8202)" d="M96.842 0l3.592 11.056h11.625l-9.404 6.833 3.592 11.056-9.405-6.833-9.405 6.833 3.592-11.056-9.404-6.833h11.625l3.592-11.056z"></path>
</symbol>
<symbol id="icon-Group-165" viewBox="0 0 159 32">
<path fill="#fe8202" style="fill: var(--color1, #fe8202)" d="M31.406 15.703c0-8.673-7.030-15.703-15.703-15.703s-15.703 7.030-15.703 15.703c0 7.838 5.742 14.334 13.249 15.512v-10.973h-3.987v-4.539h3.987v-3.46c0-3.936 2.344-6.109 5.931-6.109 1.718 0 3.515 0.307 3.515 0.307v3.864h-1.98c-1.951 0-2.559 1.211-2.559 2.454v2.944h4.355l-0.696 4.539h-3.659v10.973c7.507-1.178 13.25-7.675 13.25-15.512z"></path>
<path fill="#fe8202" style="fill: var(--color1, #fe8202)" d="M79.109 2.828c4.196 0 4.693 0.018 6.343 0.092 1.533 0.067 2.362 0.325 2.914 0.54 0.73 0.282 1.257 0.626 1.803 1.172 0.552 0.552 0.889 1.073 1.172 1.803 0.215 0.552 0.472 1.386 0.54 2.914 0.074 1.656 0.092 2.153 0.092 6.343 0 4.196-0.018 4.693-0.092 6.343-0.068 1.534-0.325 2.362-0.54 2.914-0.282 0.73-0.626 1.258-1.172 1.803-0.552 0.552-1.073 0.889-1.803 1.172-0.552 0.215-1.386 0.472-2.914 0.54-1.656 0.074-2.153 0.092-6.343 0.092-4.196 0-4.692-0.018-6.343-0.092-1.533-0.068-2.362-0.325-2.914-0.54-0.73-0.282-1.257-0.626-1.803-1.172-0.552-0.552-0.889-1.073-1.172-1.803-0.215-0.552-0.472-1.386-0.54-2.914-0.074-1.656-0.092-2.153-0.092-6.343 0-4.196 0.018-4.692 0.092-6.343 0.067-1.534 0.325-2.362 0.54-2.914 0.282-0.73 0.626-1.257 1.172-1.803 0.552-0.552 1.073-0.889 1.803-1.172 0.552-0.215 1.386-0.472 2.914-0.54 1.65-0.074 2.147-0.092 6.343-0.092zM79.109 0c-4.263 0-4.797 0.018-6.471 0.092-1.668 0.074-2.816 0.344-3.809 0.73-1.037 0.405-1.914 0.939-2.785 1.816-0.877 0.871-1.411 1.748-1.816 2.779-0.386 1-0.656 2.141-0.73 3.809-0.074 1.681-0.092 2.214-0.092 6.477s0.018 4.797 0.092 6.471c0.074 1.668 0.344 2.815 0.73 3.809 0.405 1.037 0.939 1.914 1.816 2.785 0.871 0.871 1.748 1.411 2.779 1.81 1 0.386 2.141 0.656 3.809 0.73 1.675 0.074 2.208 0.092 6.471 0.092s4.797-0.018 6.471-0.092c1.668-0.074 2.815-0.343 3.809-0.73 1.031-0.399 1.908-0.939 2.779-1.81s1.411-1.748 1.809-2.779c0.386-1 0.656-2.141 0.73-3.809 0.074-1.675 0.092-2.208 0.092-6.471s-0.018-4.797-0.092-6.471c-0.074-1.668-0.343-2.816-0.73-3.809-0.386-1.043-0.92-1.92-1.797-2.791-0.871-0.871-1.748-1.411-2.779-1.81-1-0.386-2.141-0.656-3.809-0.73-1.681-0.080-2.214-0.098-6.478-0.098z"></path>
<path fill="#fe8202" style="fill: var(--color1, #fe8202)" d="M79.109 7.637c-4.453 0-8.066 3.613-8.066 8.066s3.613 8.066 8.066 8.066 8.066-3.613 8.066-8.066c0-4.453-3.613-8.066-8.066-8.066zM79.109 20.936c-2.889 0-5.232-2.343-5.232-5.232s2.343-5.232 5.232-5.232 5.232 2.343 5.232 5.232c0 2.889-2.343 5.232-5.232 5.232z"></path>
<path fill="#fe8202" style="fill: var(--color1, #fe8202)" d="M89.378 7.318c0 1.043-0.847 1.883-1.883 1.883-1.043 0-1.883-0.847-1.883-1.883 0-1.043 0.847-1.883 1.883-1.883s1.883 0.846 1.883 1.883z"></path>
<path fill="#fe8202" style="fill: var(--color1, #fe8202)" d="M129.020 2.208c2.208-2.208 5.761-2.208 12.868-2.208h1.255c7.107 0 10.66 0 12.867 2.208 2.208 2.208 2.208 5.761 2.208 12.867v1.256c0 7.106 0 10.66-2.208 12.867-2.207 2.208-5.76 2.208-12.867 2.208h-1.255c-7.107 0-10.66 0-12.868-2.208-2.207-2.208-2.207-5.761-2.207-12.867v-1.256c0-7.106 0-10.66 2.207-12.867zM132.112 9.553c0.171 8.166 4.253 13.073 11.411 13.073h0.405v-4.672c2.63 0.262 4.62 2.185 5.418 4.672h3.716c-1.020-3.716-3.703-5.771-5.378-6.556 1.675-0.968 4.031-3.324 4.593-6.517h-3.376c-0.733 2.591-2.905 4.947-4.973 5.169v-5.169h-3.376v9.055c-2.094-0.523-4.737-3.062-4.854-9.055h-3.586z"></path>
</symbol>
<symbol id="icon-Facebook---Negative" viewBox="0 0 32 32">
<path d="M31.406 15.703c0-8.673-7.030-15.703-15.703-15.703s-15.703 7.030-15.703 15.703c0 7.838 5.742 14.334 13.249 15.512v-10.973h-3.987v-4.539h3.987v-3.46c0-3.936 2.344-6.109 5.931-6.109 1.718 0 3.515 0.307 3.515 0.307v3.864h-1.98c-1.951 0-2.559 1.211-2.559 2.454v2.944h4.355l-0.696 4.539h-3.659v10.973c7.507-1.178 13.25-7.675 13.25-15.512z"></path>
</symbol>
<symbol id="icon-Instagram---Negative" viewBox="0 0 32 32">
<path d="M16.176 2.828c4.196 0 4.693 0.018 6.343 0.092 1.533 0.067 2.362 0.325 2.914 0.54 0.73 0.282 1.258 0.626 1.803 1.172 0.552 0.552 0.889 1.073 1.172 1.803 0.215 0.552 0.472 1.386 0.54 2.914 0.074 1.656 0.092 2.153 0.092 6.343 0 4.196-0.018 4.693-0.092 6.343-0.068 1.534-0.325 2.362-0.54 2.914-0.282 0.73-0.626 1.258-1.172 1.803-0.552 0.552-1.073 0.889-1.803 1.172-0.552 0.215-1.386 0.472-2.914 0.54-1.656 0.074-2.153 0.092-6.343 0.092-4.196 0-4.692-0.018-6.343-0.092-1.534-0.068-2.362-0.325-2.914-0.54-0.73-0.282-1.257-0.626-1.803-1.172-0.552-0.552-0.889-1.073-1.172-1.803-0.215-0.552-0.472-1.386-0.54-2.914-0.074-1.656-0.092-2.153-0.092-6.343 0-4.196 0.018-4.692 0.092-6.343 0.067-1.534 0.325-2.362 0.54-2.914 0.282-0.73 0.626-1.257 1.172-1.803 0.552-0.552 1.073-0.889 1.803-1.172 0.552-0.215 1.386-0.472 2.914-0.54 1.65-0.074 2.147-0.092 6.343-0.092zM16.176 0c-4.263 0-4.797 0.018-6.471 0.092-1.668 0.074-2.816 0.344-3.809 0.73-1.037 0.405-1.914 0.939-2.785 1.816-0.877 0.871-1.411 1.748-1.816 2.779-0.386 1-0.656 2.141-0.73 3.809-0.074 1.681-0.092 2.214-0.092 6.477s0.018 4.797 0.092 6.471c0.074 1.668 0.344 2.815 0.73 3.809 0.405 1.037 0.938 1.914 1.816 2.785 0.871 0.871 1.748 1.411 2.779 1.81 1 0.386 2.141 0.656 3.809 0.73 1.675 0.074 2.208 0.092 6.471 0.092s4.797-0.018 6.471-0.092c1.668-0.074 2.815-0.343 3.809-0.73 1.030-0.399 1.908-0.939 2.779-1.81s1.411-1.748 1.809-2.779c0.386-1 0.656-2.141 0.73-3.809 0.074-1.675 0.092-2.208 0.092-6.471s-0.018-4.797-0.092-6.471c-0.074-1.668-0.343-2.816-0.73-3.809-0.386-1.043-0.92-1.92-1.797-2.791-0.871-0.871-1.748-1.411-2.779-1.81-1-0.386-2.141-0.656-3.809-0.73-1.681-0.080-2.214-0.098-6.478-0.098z"></path>
<path d="M16.176 7.637c-4.453 0-8.066 3.613-8.066 8.066s3.613 8.066 8.066 8.066 8.066-3.613 8.066-8.066c0-4.453-3.613-8.066-8.066-8.066zM16.176 20.936c-2.889 0-5.232-2.343-5.232-5.232s2.343-5.232 5.232-5.232 5.232 2.343 5.232 5.232c0 2.889-2.343 5.232-5.232 5.232z"></path>
<path d="M26.444 7.318c0 1.043-0.846 1.883-1.883 1.883-1.043 0-1.883-0.847-1.883-1.883 0-1.043 0.846-1.883 1.883-1.883s1.883 0.846 1.883 1.883z"></path>
</symbol>
<symbol id="icon-Vector" viewBox="0 0 33 32">
<path d="M3.154 2.208c2.208-2.208 5.761-2.208 12.867-2.208h1.256c7.106 0 10.66 0 12.867 2.208s2.208 5.761 2.208 12.867v1.256c0 7.106 0 10.66-2.208 12.867s-5.761 2.208-12.867 2.208h-1.256c-7.106 0-10.66 0-12.867-2.208s-2.208-5.761-2.208-12.867v-1.256c0-7.106 0-10.66 2.208-12.867zM6.246 9.553c0.17 8.166 4.253 13.073 11.411 13.073h0.406v-4.672c2.63 0.262 4.619 2.185 5.418 4.672h3.716c-1.021-3.716-3.703-5.771-5.378-6.556 1.675-0.968 4.030-3.324 4.593-6.517h-3.376c-0.733 2.591-2.905 4.947-4.972 5.169v-5.169h-3.376v9.055c-2.094-0.523-4.737-3.062-4.855-9.055h-3.586z"></path>
</symbol>
</defs>
</svg>
