<svg aria-hidden="true" style="position: absolute; width: 0; height: 0; overflow: hidden;" version="1.1" xmlns="http://www.w3.org/2000/svg" xmlns:xlink="http://www.w3.org/1999/xlink">
<defs>
<symbol id="icon-g-clef-musical-note-1-Traced" viewBox="0 0 84 32">
<path fill="#fe8202" style="fill: var(--color1, #fe8202)" d="M83.695 19.878c-1.66-1.568-5.627-3.854-8.483-4.889-2.822-1.023-6.944-1.499-9.894-1.143-0.863 0.104-2.787 0.405-4.276 0.669s-2.838 0.48-2.998 0.48c-0.163 0-1.014-0.802-1.936-1.827-6.706-7.448-12.631-11.456-19.064-12.896-0.82-0.184-1.96-0.272-3.525-0.272-4.102-0.001-6.647 0.924-9.307 3.384-2.974 2.751-4.952 6.163-5.978 10.312-0.303 1.228-0.382 2.006-0.386 3.816-0.005 2.353 0.183 3.422 0.879 5.018l0.318 0.73-0.858 0.312c-3.183 1.159-8.020 1.569-10.852 0.92-4.697-1.076-6.885-4.187-6.313-8.978 0.195-1.637 0.729-3.609 1.129-4.17 0.204-0.287 0.228-0.206 0.228 0.765 0 2.098 1.065 3.836 2.915 4.757 0.862 0.429 1.13 0.482 2.454 0.479 1.293-0.003 1.598-0.061 2.344-0.444 1.119-0.576 1.977-1.45 2.512-2.557 0.363-0.752 0.43-1.111 0.422-2.274-0.011-1.764-0.441-2.796-1.588-3.81-1.090-0.964-2.157-1.312-3.937-1.284-1.642 0.025-2.845 0.392-4.215 1.286-1.066 0.695-1.695 1.402-2.364 2.657-0.705 1.322-0.918 2.429-0.922 4.804-0.005 2.461 0.188 3.399 1.068 5.197 1.556 3.178 4.090 4.725 8.046 4.911 2.217 0.105 3.935-0.096 7.628-0.892 1.78-0.383 2.736-0.525 2.775-0.41 0.132 0.391 2.035 3.101 2.685 3.824 1.705 1.898 4.186 3.256 6.483 3.549 1.445 0.184 3.622 0.093 4.893-0.203 0.421-0.098 1.383-0.467 2.137-0.819 3.354-1.565 5.166-4.848 5.223-9.464l0.024-1.94 9.655-2.091 0.686 0.793c0.377 0.436 1.408 1.499 2.291 2.362 3.415 3.339 6.548 5.12 10.87 6.181 1.982 0.486 7.154 0.524 9.271 0.068 3.023-0.652 6.133-1.944 8.664-3.599 2.372-1.552 2.585-2.096 1.295-3.315zM78.93 22.884c-0.384 0.795-1.367 1.599-2.481 2.028-1.293 0.498-4.335 0.543-6.092 0.090-1.444-0.372-3.531-1.315-4.829-2.182-2.021-1.349-6.259-5.289-6.79-6.311l-0.344-0.664 0.454-0.089c1.167-0.229 4.268-0.293 6.223-0.128 4.396 0.372 7.596 1.16 10.473 2.58 3.058 1.508 4.172 3.047 3.386 4.676zM45.136 17.428l-4.242 0.916-0.187-0.741c-0.103-0.407-0.458-1.289-0.79-1.958-0.807-1.628-2.93-3.742-4.524-4.506-3.408-1.634-6.716-1.272-8.946 0.978-0.823 0.831-1.767 2.443-1.553 2.654 0.057 0.056 0.398-0.128 0.758-0.409 1.254-0.976 2.071-1.234 3.911-1.234 1.588 0 1.716 0.027 2.921 0.613 1.412 0.686 2.348 1.599 3.013 2.941 0.374 0.754 0.832 2.507 0.692 2.646-0.059 0.058-15.627 3.462-15.84 3.463-0.233 0.001-0.658-1.032-1.051-2.557-0.65-2.519-0.515-5.788 0.336-8.141 0.746-2.063 2.142-4.070 3.741-5.378 1.295-1.059 2.186-1.558 3.955-2.212 1.262-0.467 1.755-0.558 3.499-0.648 4.949-0.255 8.385 1.193 12.526 5.282 2.117 2.090 6.471 7.214 6.211 7.309-0.103 0.038-2.097 0.48-4.43 0.984zM35.889 23.176c-0.447 1.714-1.548 3.28-2.903 4.129-2.853 1.787-6.808 1.505-9.738-0.695-0.762-0.572-2.363-2.34-2.365-2.612-0.001-0.095 3.293-0.884 7.357-1.763 4.047-0.875 7.512-1.63 7.7-1.679 0.328-0.084 0.337-0.045 0.227 0.951-0.063 0.571-0.189 1.322-0.279 1.668z"></path>
</symbol>
<symbol id="icon-Instagram---Negative" viewBox="0 0 32 32">
<path fill="#fe8202" style="fill: var(--color1, #fe8202)" d="M15.703 2.828c4.196 0 4.692 0.018 6.343 0.092 1.534 0.067 2.362 0.325 2.914 0.54 0.73 0.282 1.258 0.626 1.803 1.172 0.552 0.552 0.889 1.073 1.172 1.803 0.215 0.552 0.472 1.386 0.54 2.914 0.074 1.656 0.092 2.153 0.092 6.343 0 4.196-0.018 4.693-0.092 6.343-0.068 1.534-0.325 2.362-0.54 2.914-0.282 0.73-0.626 1.258-1.172 1.803-0.552 0.552-1.073 0.889-1.803 1.172-0.552 0.215-1.386 0.472-2.914 0.54-1.656 0.074-2.153 0.092-6.343 0.092-4.196 0-4.693-0.018-6.343-0.092-1.534-0.068-2.362-0.325-2.914-0.54-0.73-0.282-1.257-0.626-1.803-1.172-0.552-0.552-0.889-1.073-1.172-1.803-0.215-0.552-0.472-1.386-0.54-2.914-0.074-1.656-0.092-2.153-0.092-6.343 0-4.196 0.018-4.692 0.092-6.343 0.067-1.534 0.325-2.362 0.54-2.914 0.282-0.73 0.626-1.257 1.172-1.803 0.552-0.552 1.073-0.889 1.803-1.172 0.552-0.215 1.386-0.472 2.914-0.54 1.65-0.074 2.147-0.092 6.343-0.092zM15.703 0c-4.263 0-4.797 0.018-6.471 0.092-1.668 0.074-2.816 0.344-3.809 0.73-1.037 0.405-1.914 0.939-2.785 1.816-0.877 0.871-1.411 1.748-1.816 2.779-0.386 1-0.656 2.141-0.73 3.809-0.074 1.681-0.092 2.214-0.092 6.477s0.018 4.797 0.092 6.471c0.074 1.668 0.344 2.815 0.73 3.809 0.405 1.037 0.939 1.914 1.816 2.785 0.871 0.871 1.748 1.411 2.779 1.81 1 0.386 2.141 0.656 3.809 0.73 1.675 0.074 2.208 0.092 6.471 0.092s4.797-0.018 6.471-0.092c1.668-0.074 2.816-0.343 3.809-0.73 1.030-0.399 1.908-0.939 2.779-1.81s1.411-1.748 1.81-2.779c0.386-1 0.656-2.141 0.73-3.809 0.074-1.675 0.092-2.208 0.092-6.471s-0.018-4.797-0.092-6.471c-0.074-1.668-0.343-2.816-0.73-3.809-0.386-1.043-0.92-1.92-1.797-2.791-0.871-0.871-1.748-1.411-2.779-1.81-1-0.386-2.141-0.656-3.809-0.73-1.681-0.080-2.214-0.098-6.477-0.098z"></path>
<path fill="#fe8202" style="fill: var(--color1, #fe8202)" d="M15.703 7.637c-4.453 0-8.066 3.613-8.066 8.066s3.613 8.066 8.066 8.066c4.453 0 8.066-3.613 8.066-8.066s-3.613-8.066-8.066-8.066zM15.703 20.936c-2.889 0-5.232-2.343-5.232-5.232s2.343-5.232 5.232-5.232c2.889 0 5.232 2.343 5.232 5.232s-2.343 5.232-5.232 5.232z"></path>
<path fill="#fe8202" style="fill: var(--color1, #fe8202)" d="M25.972 7.318c0 1.043-0.846 1.883-1.883 1.883-1.043 0-1.883-0.847-1.883-1.883 0-1.043 0.846-1.883 1.883-1.883s1.883 0.846 1.883 1.883z"></path>
</symbol>
</defs>
</svg>
