<svg width="15" height="15" viewBox="0 0 15 15" fill="none" xmlns="http://www.w3.org/2000/svg">
<rect x="0.5" y="0.5" width="14" height="14" stroke="black"/>
<path fill-rule="evenodd" clip-rule="evenodd" d="M11.3601 4.02499C11.3121 4.04388 11.2469 4.08456 11.2152 4.11543C11.1836 4.14629 10.172 5.32854 8.96722 6.74264C7.34315 8.64896 6.74649 9.33393 6.65959 9.39184C6.52099 9.4842 6.36853 9.49569 6.22234 9.4248C6.17016 9.39952 5.62841 8.90176 4.95014 8.25596C4.16745 7.51073 3.73515 7.1154 3.66902 7.08445C3.35674 6.93824 3.00132 7.18252 3 7.54427C2.99973 7.61881 3.01566 7.71901 3.0354 7.76697C3.06068 7.82834 3.52049 8.3021 4.58632 9.3649C5.41956 10.1958 6.14387 10.9027 6.1959 10.9357C6.33763 11.0257 6.53033 11.0208 6.67129 10.9237C6.79108 10.8411 11.874 4.88506 11.9457 4.74326C12.1038 4.43045 11.8993 4.03796 11.5598 4.00245C11.4915 3.99529 11.4132 4.00413 11.3601 4.02499Z" fill="black"/>
</svg>
